# xmcd
#
# Track frame offsets:
# 150
# 21333
# 39998
# 58393
# 77615
# 121608
# 136965
# 157090
# 179015
# 204292
# 222310
# 245690
# 270120
# 291362
# 312397
#
# Disc length: 4422 seconds
#
#
# Revision: 0
# Processed by: cddbd v1.5.1PL0 Copyright (c) Steve Scherf et al.
# Submitted via: FreeRIP 2.90 
#
DISCID=db11440f
DTITLE=Eros Ramazzotti - EROS spanisch
DYEAR=1900
DGENRE=Pop
TTITLE0=Tierra Prometida
TTITLE1=Una historia importante
TTITLE2=ahora tu
TTITLE3=fantástico amor
TTITLE4=musica É
TTITLE5=ojos de esperanza
TTITLE6=la cosa mas bella
TTITLE7=cosas de la vida
TTITLE8=la aurora
TTITLE9=un minuto de sol
TTITLE10=casi amor
TTITLE11=si bastasen un par de canciones
TTITLE12=otra como tu
TTITLE13=fabula
TTITLE14=cuanto amor me das
EXTD=
EXTT0=
EXTT1=
EXTT2=
EXTT3=
EXTT4=
EXTT5=
EXTT6=
EXTT7=
EXTT8=
EXTT9=
EXTT10=
EXTT11=
EXTT12=
EXTT13=
EXTT14=
PLAYORDER=
